HIERARCHY
ROOT SpineBase
{
  OFFSET 0.000000 0.000000 0.000000
  CHANNELS 6 Xposition Yposition Zposition Zrotation Xrotation Yrotation
  JOINT SpineMid
  {
    OFFSET 0.000000 32.303082 0.000000
    CHANNELS 3 Zrotation Xrotation Yrotation
    JOINT SpineShoulder
    {
      OFFSET -0.097714 23.991331 -0.734277
      CHANNELS 3 Zrotation Xrotation Yrotation
      JOINT Neck
      {
        OFFSET -0.022088 7.985181 -0.661300
        CHANNELS 3 Zrotation Xrotation Yrotation
        JOINT Head
        {
          OFFSET 5.761632 12.231502 2.630220
          CHANNELS 3 Zrotation Xrotation Yrotation
          End Site
          {
            OFFSET 0 0 0
          }
        }
      }
      JOINT ShoulderLeft
      {
        OFFSET -0.947944 -3.910454 -11.636358
        CHANNELS 3 Zrotation Xrotation Yrotation
        JOINT ElbowLeft
        {
          OFFSET 5.715291 -24.283898 -9.149917
          CHANNELS 3 Zrotation Xrotation Yrotation
          JOINT WristLeft
          {
            OFFSET 6.131338 -24.365622 4.968381
            CHANNELS 3 Zrotation Xrotation Yrotation
            JOINT HandLeft
            {
              OFFSET 2.475060 -4.436362 1.165150
              CHANNELS 3 Zrotation Xrotation Yrotation
              JOINT HandTipLeft
              {
                OFFSET 0.246389 -5.205105 0.170500
                CHANNELS 3 Zrotation Xrotation Yrotation
                End Site
                {
                  OFFSET 0 0 0
                }
              }
              JOINT ThumbLeft
              {
                OFFSET 2.496459 1.226243 -0.607746
                CHANNELS 3 Zrotation Xrotation Yrotation
                End Site
                {
                  OFFSET 0 0 0
                }
              }
            }
          }
        }
      }
      JOINT ShoulderRight
      {
        OFFSET 7.522837 -9.092797 -16.787161
        CHANNELS 3 Zrotation Xrotation Yrotation
        JOINT ElbowRight
        {
          OFFSET 0.006526 -22.034780 -3.665916
          CHANNELS 3 Zrotation Xrotation Yrotation
          JOINT WristRight
          {
            OFFSET -0.279862 -21.841469 2.042318
            CHANNELS 3 Zrotation Xrotation Yrotation
            JOINT HandRight
            {
              OFFSET 2.286199 -2.751676 3.232868
              CHANNELS 3 Zrotation Xrotation Yrotation
              JOINT HandTipRight
              {
                OFFSET -0.730978 1.321685 -0.582548
                CHANNELS 3 Zrotation Xrotation Yrotation
                End Site
                {
                  OFFSET 0 0 0
                }
              }
              JOINT ThumbRight
              {
                OFFSET -1.073319 1.004195 -2.854832
                CHANNELS 3 Zrotation Xrotation Yrotation
                End Site
                {
                  OFFSET 0 0 0
                }
              }
            }
          }
        }
      }
    }
  }
  JOINT HipLeft
  {
    OFFSET -5.990686 1.577787 -5.501589
    CHANNELS 3 Zrotation Xrotation Yrotation
    JOINT KneeLeft
    {
      OFFSET 10.962962 -30.297496 0.583030
      CHANNELS 3 Zrotation Xrotation Yrotation
      JOINT AnkleLeft
      {
        OFFSET -3.233543 -38.780181 5.883363
        CHANNELS 3 Zrotation Xrotation Yrotation
        JOINT FootLeft
        {
          OFFSET -7.788687 5.079204 7.169433
          CHANNELS 3 Zrotation Xrotation Yrotation
          End Site
          {
            OFFSET 0 0 0
          }
        }
      }
    }
  }
  JOINT HipRight
  {
    OFFSET 4.649063 0.711234 -1.296742
    CHANNELS 3 Zrotation Xrotation Yrotation
    JOINT KneeRight
    {
      OFFSET -12.740284 -27.399502 15.488105
      CHANNELS 3 Zrotation Xrotation Yrotation
      JOINT AnkleRight
      {
        OFFSET -3.943183 -27.331987 4.988014
        CHANNELS 3 Zrotation Xrotation Yrotation
        JOINT FootRight
        {
          OFFSET -5.406850 -3.454656 -11.747891
          CHANNELS 3 Zrotation Xrotation Yrotation
          End Site
          {
            OFFSET 0 0 0
          }
        }
      }
    }
  }
}
MOTION
Frames: 13
Frame Time: 0.033333
60.325468 68.791512 306.250618 -0.000000 0.000000 -21.564018 -0.000000 0.000000 21.564018 -0.000000 0.000000 0.000000 -0.000000 0.000000 0.000000 0.000000 0.000000 0.000000 -0.000000 0.000000 0.000000 -0.000000 0.000000 0.000000 -0.000000 0.000000 0.000000 -0.000000 0.000000 0.000000 0.000000 0.000000 0.000000 0.000000 0.000000 0.000000 -0.000000 0.000000 0.000000 -0.000000 0.000000 0.000000 -0.000000 0.000000 0.000000 -0.000000 0.000000 0.000000 0.000000 0.000000 0.000000 0.000000 0.000000 0.000000 -0.000000 0.000000 21.564018 -0.000000 0.000000 0.000000 -0.000000 0.000000 0.000000 0.000000 0.000000 0.000000 -0.000000 0.000000 21.564018 -0.000000 0.000000 0.000000 -0.000000 0.000000 0.000000 0.000000 0.000000 0.000000
60.483721 68.890607 306.263699 0.136138 0.050708 -22.546332 -0.106290 -0.099032 22.546180 -0.000000 0.000000 0.000000 1.007437 0.045541 -0.239465 0.000000 0.000000 0.000000 -0.000000 0.000000 0.000000 1.805009 0.096587 0.389394 -1.324128 -4.974151 -2.928365 0.508268 2.778546 2.442400 0.000000 0.000000 0.000000 0.000000 0.000000 0.000000 -0.000000 0.000000 0.000000 -0.000000 0.000000 0.000000 -12.399622 2.801813 -13.548520 160.400901 -44.235075 79.525511 0.000000 0.000000 0.000000 0.000000 0.000000 0.000000 -0.892662 -0.569554 22.475803 0.906511 0.134113 0.064728 0.786434 1.010866 0.423391 0.000000 0.000000 0.000000 -0.106290 -0.099032 22.546180 -0.000000 0.000000 0.000000 -0.242569 -0.141266 1.046568 0.000000 0.000000 0.000000
60.628258 68.977699 306.286264 0.255198 0.089700 -23.410065 -0.198554 -0.183707 23.409547 -0.000000 0.000000 0.000000 1.996007 0.041336 -0.453130 0.000000 0.000000 0.000000 1.363671 0.062364 -0.498404 2.074496 -0.005712 1.204861 -3.287092 -8.560757 -5.313601 1.604020 4.618859 4.277464 0.000000 0.000000 0.000000 0.000000 0.000000 0.000000 0.572196 0.940492 -0.099479 -0.591693 -1.836274 0.098943 -19.115354 6.499325 -20.680485 177.432372 -35.156788 76.695851 0.000000 0.000000 0.000000 0.000000 0.000000 0.000000 -1.658122 -1.024439 23.291993 1.673008 0.194808 0.099321 1.774202 2.280707 0.910718 0.000000 0.000000 0.000000 -0.824114 0.017032 22.927930 0.497942 -0.428578 0.482570 -0.440675 -0.260281 1.908004 0.000000 0.000000 0.000000
60.759079 69.052786 306.318314 0.357029 0.116897 -24.141808 -0.277994 -0.252694 24.140830 -0.000000 0.000000 0.000000 2.967009 -0.011960 -0.640030 0.000000 0.000000 0.000000 1.913373 0.092495 -0.697818 2.938954 -0.245304 1.641175 -5.637618 -11.159702 -7.399955 3.201271 5.960232 5.713209 0.000000 0.000000 0.000000 0.000000 0.000000 0.000000 0.694186 1.162224 -0.121983 -0.709477 -2.402353 0.121362 -22.901162 8.829316 -24.690224 -179.043072 -32.716458 71.105877 0.000000 0.000000 0.000000 0.000000 0.000000 0.000000 -2.304257 -1.354156 24.003331 2.298952 0.181291 0.105445 2.972362 3.830971 1.454246 0.000000 0.000000 0.000000 -1.205760 0.062110 23.423208 0.726198 -0.657653 0.720247 -0.594867 -0.354745 2.582058 0.000000 0.000000 0.000000
60.876184 69.115869 306.359848 0.441500 0.132237 -24.730945 -0.345690 -0.304809 24.729516 0.768978 0.495775 0.061750 3.152351 -0.612282 -0.833568 0.000000 0.000000 0.000000 1.612797 -0.373985 -0.914396 3.624319 -0.660343 1.962982 -8.275850 -13.027522 -9.331438 5.281680 7.078563 6.885050 0.000000 0.000000 0.000000 0.000000 0.000000 0.000000 -0.061474 0.723262 -0.186807 -0.709605 -2.733645 0.127904 -25.140615 10.392382 -27.020734 -178.082434 -31.109044 66.641683 0.000000 0.000000 0.000000 0.000000 0.000000 0.000000 -2.838052 -1.549638 24.602637 1.957095 0.352843 -0.059629 5.201467 5.438386 2.211476 0.000000 0.000000 0.000000 -1.568712 0.136587 23.779118 0.941291 -0.897022 0.955971 -0.705690 -0.422899 3.067271 0.000000 0.000000 0.000000
60.979572 69.166948 306.410867 0.508504 0.135669 -25.170016 -0.402527 -0.339051 25.168223 0.894807 0.586878 0.071175 3.966392 -0.854444 -0.959951 0.000000 0.000000 0.000000 1.878843 -0.433190 -1.058211 4.095962 -1.252723 2.168903 -11.211362 -14.334290 -11.218053 7.894267 8.167138 7.880062 0.000000 0.000000 0.000000 0.000000 0.000000 0.000000 -0.284349 0.524296 -0.180954 -0.592364 -2.830024 0.118740 -26.463521 11.368990 -28.377256 -178.395099 -29.486743 62.877665 0.000000 0.000000 0.000000 0.000000 0.000000 0.000000 -3.265079 -1.603418 25.085127 1.820167 0.201204 -0.182990 7.314755 7.624629 2.911318 0.000000 0.000000 0.000000 -1.913630 0.244109 23.988356 1.143661 -1.147040 1.190064 -0.773587 -0.463499 3.362752 0.000000 0.000000 0.000000
61.001322 69.186189 306.505263 0.518297 0.074642 -25.350048 -0.436436 -0.289358 25.348608 1.004763 0.641811 0.079395 4.594612 -1.002957 -1.072106 0.000000 0.000000 0.000000 2.173112 -0.508791 -1.216641 4.205290 -1.933545 2.293530 -14.076446 -16.862400 -13.940903 10.763231 12.567636 9.202429 0.000000 0.000000 0.000000 0.000000 0.000000 0.000000 -1.005715 -0.640320 -0.090643 0.028679 -2.155373 0.030788 -25.552595 10.426029 -27.877968 178.038253 -27.269385 59.712993 0.000000 0.000000 0.000000 0.000000 0.000000 0.000000 -3.538543 -1.292774 25.396555 1.025228 -0.098876 -0.450327 8.558511 12.879027 8.722523 0.000000 0.000000 0.000000 -2.191922 0.361269 23.985689 2.110859 -1.691494 1.596535 -1.530663 -0.048978 3.146992 0.000000 0.000000 0.000000
61.020525 69.185649 306.598122 0.486595 0.029125 -25.270852 -0.427597 -0.234061 25.269855 1.072074 0.700885 0.084209 5.505638 -1.280638 -1.161073 0.000000 0.000000 0.000000 2.439935 -0.605964 -1.348432 3.816568 -3.086295 2.184022 -17.182899 -19.281073 -17.058564 14.102113 15.629018 10.503291 0.000000 0.000000 0.000000 0.000000 0.000000 0.000000 -1.073183 -0.699186 -0.097315 0.141143 -2.461982 0.047687 -25.177513 7.994156 -29.530214 174.102003 -27.133449 55.265200 0.000000 0.000000 0.000000 0.000000 0.000000 0.000000 -3.597704 -0.807891 25.485289 -0.118869 -0.532816 -0.774071 12.431713 16.104784 8.520012 0.000000 0.000000 0.000000 -2.469691 0.611721 23.672473 2.303337 -2.136638 1.869930 -1.441838 0.178482 2.742034 0.000000 0.000000 0.000000
61.126897 69.227116 306.648358 0.549239 0.038675 -25.577133 -0.478724 -0.272001 25.575811 1.116314 0.767016 0.087147 6.475119 -1.578341 -1.242340 0.000000 0.000000 0.000000 2.599179 -0.558662 -1.398797 3.466921 -4.150296 2.028325 -22.576202 -17.336072 -18.581197 20.138563 13.176985 10.521004 0.000000 0.000000 0.000000 0.000000 0.000000 0.000000 -1.117579 -0.765172 -0.102082 0.185293 -2.103529 0.047603 -25.259898 11.230055 -26.278735 177.933066 -25.160714 60.180501 0.000000 0.000000 0.000000 0.000000 0.000000 0.000000 -3.742836 -0.653891 25.877972 -1.098237 -0.833529 -1.024133 19.771821 17.863111 2.584353 0.000000 0.000000 0.000000 -2.825279 0.974596 23.696138 2.105826 -3.002492 2.156433 -1.025148 0.609736 2.362640 0.000000 0.000000 0.000000
61.237902 69.232205 306.720815 0.660207 0.036023 -25.556047 -0.580082 -0.317301 25.554234 1.126066 0.787053 0.087749 7.136729 -1.975410 -1.168927 0.000000 0.000000 0.000000 2.587897 -0.653670 -1.413530 3.466932 -4.730871 1.913494 -29.103818 -15.192294 -20.272172 26.307569 10.608809 10.732004 0.000000 0.000000 0.000000 0.000000 0.000000 0.000000 -0.885552 -1.776596 -0.138668 0.007840 -0.353866 0.082245 -26.123930 11.254293 -27.370542 172.673768 -19.111351 52.191817 0.000000 0.000000 0.000000 0.000000 0.000000 0.000000 -3.816754 -0.333053 25.983777 -2.117343 -1.322838 -1.296605 32.264455 15.203036 -12.234080 0.000000 0.000000 0.000000 -3.244478 1.423350 23.366098 1.498916 -4.122620 2.391620 -0.209700 1.180567 2.089220 0.000000 0.000000 0.000000
61.508366 69.328289 306.695813 0.843372 0.105634 -25.303362 -0.101222 0.082304 25.326738 0.430455 0.620091 0.072450 7.750148 -2.432309 -1.085716 0.000000 0.000000 0.000000 2.399038 -0.530187 -1.346698 3.149915 -5.505266 1.637662 -34.377038 -11.470221 -19.967274 33.885534 8.016283 10.042227 0.000000 0.000000 0.000000 0.000000 0.000000 0.000000 -0.177159 -1.864024 -0.261672 -1.046331 1.017576 0.183405 -25.167265 9.306766 -27.582883 163.054791 -13.193522 45.401849 0.000000 0.000000 0.000000 0.000000 0.000000 0.000000 -4.024581 -0.326058 25.779275 -2.504825 -1.659129 -1.421887 44.768885 -0.803909 -37.064072 0.000000 0.000000 0.000000 -3.851767 1.824126 22.680131 1.209471 -5.440581 2.789786 0.351188 1.770637 2.261599 0.000000 0.000000 0.000000
61.940328 69.464214 306.588911 1.091820 0.244463 -25.551947 -0.134181 0.008766 25.579843 0.354997 0.626659 0.075341 9.205716 -2.786191 -1.243550 0.000000 0.000000 0.000000 1.974731 -0.323159 -1.177818 2.815212 -6.245851 1.230961 -37.584804 -7.184929 -17.801256 38.299638 5.002074 9.738607 0.000000 0.000000 0.000000 0.000000 0.000000 0.000000 0.440435 -1.427313 -0.382284 -1.774601 0.480343 0.302635 -24.495720 8.232427 -27.463901 157.179555 -12.629049 43.415908 0.000000 0.000000 0.000000 0.000000 0.000000 0.000000 -4.476995 -0.812547 25.959922 -1.911823 -1.893889 -1.318950 38.801700 -24.833273 -63.191690 0.000000 0.000000 0.000000 -4.206340 1.856958 22.735830 0.751599 -6.068249 2.871572 0.816611 1.966408 2.714045 0.000000 0.000000 0.000000
62.424949 69.557697 306.392696 1.387595 0.449669 -26.663677 -0.105135 -0.072223 26.698245 0.406266 0.624426 0.093166 9.525965 -2.897247 -1.391161 0.000000 0.000000 0.000000 1.506431 -0.041291 -1.072909 2.212600 -6.982305 0.861013 -39.062686 -3.669678 -15.217343 40.415896 2.066832 9.637004 0.000000 0.000000 0.000000 0.000000 0.000000 0.000000 0.602981 -0.997852 -0.493782 -2.209807 0.796459 0.371300 -23.405398 5.676246 -27.549180 153.808347 -13.667968 42.906971 0.000000 0.000000 0.000000 0.000000 0.000000 0.000000 -4.727924 -1.911541 26.796935 -1.729239 -1.243931 -1.100756 26.944045 -36.913603 -83.106400 0.000000 0.000000 0.000000 -4.419273 1.492663 23.809998 0.560548 -6.098594 2.831102 0.898882 1.869186 3.228702 0.000000 0.000000 0.000000
